<svg width="136" height="164" viewBox="0 0 136 164" fill="none" xmlns="http://www.w3.org/2000/svg">
<g clip-path="url(#clip0)">
<path d="M93.1329 38.767C101.254 38.767 108.078 33.225 110.033 25.718L115.5 26.532C115.607 26.548 115.715 26.556 115.82 26.556C116.871 26.556 117.791 25.786 117.951 24.716C118.127 23.538 117.312 22.44 116.135 22.265L110.594 21.44C110.596 21.394 110.598 21.349 110.598 21.302C110.598 21.12 110.592 20.94 110.584 20.76C110.584 20.76 110.133 14.242 109.51 11.523C108.889 8.804 106.975 8.227 106.975 8.227C97.2049 6.015 87.2029 5.789 84.5999 5.789C81.9969 5.789 81.4419 7.121 81.4419 7.121L78.2919 12.117L78.2819 12.114C78.2059 12.236 78.136 12.359 78.063 12.482L78.0359 12.525C76.5339 15.105 75.6689 18.101 75.6689 21.302C75.6679 30.948 83.4879 38.767 93.1329 38.767Z" fill="white"/>
<path d="M131.535 78.076V78.074L104.793 75.906L95.5469 54.794C95.5469 54.794 95.0859 52.02 89.5389 46.318C83.9899 40.616 72.7399 42.928 72.7399 42.928C72.7399 42.928 48.8539 47.397 40.9949 49.246C33.1349 51.096 32.8269 59.109 32.8269 59.109L32.1949 63.628L17.0169 60.687C16.8259 60.65 16.6359 60.632 16.4489 60.632C15.0419 60.632 13.7779 61.632 13.5009 63.061L6.08995 101.303C5.77595 102.923 6.84395 104.505 8.46495 104.819L59.6609 114.742C59.7759 114.764 59.8909 114.766 60.0069 114.775H60.0089C59.2809 114.879 58.7179 114.74 58.7179 114.74L49.3179 112.891L46.2359 129.996L22.6759 150.359C20.9749 151.72 19.8839 153.812 19.8839 156.16C19.8839 160.264 23.2099 163.59 27.3129 163.59C29.3479 163.59 31.1909 162.772 32.5329 161.445C32.5329 161.445 60.2579 139.395 62.1079 137.854C63.9579 136.314 64.8809 134.001 64.8809 134.001C64.8809 134.001 69.422 120.053 70.66 117.127C71.5079 115.123 75.5919 116.048 75.5919 116.048L98.4769 124.679L106.092 153.741C106.174 154.371 106.334 154.975 106.565 155.545H106.567C107.665 158.273 110.337 160.199 113.456 160.199C117.56 160.199 120.886 156.872 120.886 152.769C120.886 152.17 120.814 151.59 120.679 151.033C119.837 146.068 116.075 123.987 115.118 119.207C114.04 113.813 110.497 112.273 110.497 112.273C110.497 112.273 89.229 100.715 87.8429 99.944C86.4559 99.174 86.7649 97.17 86.7649 97.17L90.6949 82.839L93.4679 88.695C93.4679 88.695 95.087 91.969 97.5519 92.086L130.909 92.906C135.013 92.906 138.339 89.58 138.339 85.475C138.338 81.586 135.346 78.396 131.535 78.076ZM60.1039 62.807L58.3149 68.687L68.2129 70.606L47.9989 66.689L48.5469 64.193L60.1039 62.807ZM57.8549 108.28L12.5509 99.499L18.8209 67.146L31.3629 69.577L29.7449 81.144L29.1049 85.55C29.0999 85.576 29.0969 85.606 29.0929 85.632L29.0749 85.759H29.0769C29.0369 86.071 29.0139 86.388 29.0139 86.71C29.0139 90.814 32.3409 94.139 36.4439 94.139C40.5469 94.139 43.8729 90.814 43.8729 86.71C43.8729 86.392 43.8519 86.08 43.8119 85.773L46.7129 72.55L64.1259 75.924L57.8549 108.28Z" fill="white"/>
<path d="M25.0498 17.008H63.0768C64.1768 17.008 65.0768 16.112 65.0768 15.018C65.0768 13.924 64.1768 13.028 63.0768 13.028H25.0498C23.9498 13.028 23.0498 13.924 23.0498 15.018C23.0498 16.112 23.9498 17.008 25.0498 17.008Z" fill="white"/>
<path d="M38.0801 23.025C36.9801 23.025 36.0801 23.921 36.0801 25.015C36.0801 26.109 36.9801 27.005 38.0801 27.005H61.0391C62.1391 27.005 63.0391 26.109 63.0391 25.015C63.0391 23.92 62.1391 23.025 61.0391 23.025H38.0801Z" fill="white"/>
<path d="M87.0978 32.732C95.2188 32.732 102.043 27.19 103.998 19.683L109.465 20.497C109.572 20.513 109.68 20.521 109.785 20.521C110.836 20.521 111.756 19.751 111.916 18.681C112.092 17.503 111.277 16.405 110.1 16.23L104.559 15.405C104.561 15.359 104.563 15.314 104.563 15.267C104.563 15.085 104.557 14.905 104.549 14.725C104.549 14.725 104.098 8.207 103.475 5.488C102.854 2.769 100.94 2.192 100.94 2.192C91.1698 -0.0200021 81.1678 -0.246002 78.5638 -0.246002C75.9598 -0.246002 75.4058 1.086 75.4058 1.086L72.2558 6.082L72.2458 6.079C72.1698 6.2 72.0998 6.324 72.0268 6.447L71.9998 6.49C70.4978 9.07 69.6328 12.066 69.6328 15.267C69.6328 24.913 77.4528 32.732 87.0978 32.732Z" fill="#3A3A3A"/>
<path d="M125.5 72.041V72.039L98.7582 69.871L89.5122 48.759C89.5122 48.759 89.0512 45.985 83.5042 40.283C77.9552 34.581 66.7052 36.893 66.7052 36.893C66.7052 36.893 42.8192 41.362 34.9602 43.21C27.1002 45.06 26.7922 53.073 26.7922 53.073L23.7102 75.109L23.0702 79.515C23.0652 79.541 23.0622 79.571 23.0582 79.597L23.0402 79.724H23.0422C23.0022 80.036 22.9792 80.353 22.9792 80.675C22.9792 84.779 26.3062 88.104 30.4092 88.104C34.5122 88.104 37.8382 84.779 37.8382 80.675C37.8382 80.357 37.8172 80.045 37.7772 79.738L42.5112 58.157L54.0682 56.771L52.2792 62.651L62.1772 64.57C63.7972 64.883 64.8652 66.466 64.5522 68.087L57.1402 106.33C56.8632 107.76 55.5992 108.76 54.1922 108.76C54.1202 108.76 54.0462 108.744 53.9722 108.739C53.2442 108.843 52.6812 108.704 52.6812 108.704L43.2812 106.855L40.1992 123.96L16.6392 144.323C14.9382 145.684 13.8472 147.776 13.8472 150.124C13.8472 154.228 17.1732 157.554 21.2762 157.554C23.3112 157.554 25.1542 156.736 26.4962 155.409C26.4962 155.409 54.2212 133.359 56.0712 131.818C57.9212 130.278 58.8442 127.965 58.8442 127.965C58.8442 127.965 63.3852 114.017 64.6232 111.091C65.4712 109.087 69.5552 110.012 69.5552 110.012L92.4402 118.643L100.055 147.705C100.137 148.335 100.297 148.939 100.528 149.509H100.53C101.628 152.237 104.3 154.163 107.419 154.163C111.523 154.163 114.849 150.836 114.849 146.733C114.849 146.134 114.777 145.554 114.642 144.997C113.8 140.032 110.038 117.951 109.081 113.171C108.003 107.777 104.46 106.237 104.46 106.237C104.46 106.237 83.1932 94.682 81.8072 93.91C80.4202 93.14 80.7292 91.136 80.7292 91.136L84.6592 76.805L87.4322 82.661C87.4322 82.661 89.0512 85.935 91.5162 86.052L124.873 86.872C128.977 86.872 132.303 83.546 132.303 79.441C132.303 75.551 129.311 72.36 125.5 72.041Z" fill="#3A3A3A"/>
<path d="M53.9708 109.144H53.9728C54.0458 109.15 54.1198 109.165 54.1928 109.165C55.5998 109.165 56.8638 108.165 57.1408 106.735L64.5528 68.492C64.8658 66.871 63.7978 65.289 62.1778 64.975L41.9638 61.058L40.6778 66.92L58.0908 70.294L51.8198 102.648L6.51579 93.869L12.7858 61.516L25.3278 63.947L26.1598 57.997L10.9818 55.055C10.7908 55.018 10.6008 55 10.4138 55C9.00679 55 7.74279 56 7.46579 57.429L0.0547894 95.673C-0.259211 97.293 0.808789 98.875 2.42979 99.189L53.6258 109.112C53.7398 109.134 53.8548 109.135 53.9708 109.144Z" fill="#F0C42E"/>
<path d="M59.0421 8.982C59.0421 10.077 58.1421 10.972 57.0421 10.972H19.0151C17.9151 10.972 17.0151 10.076 17.0151 8.982C17.0151 7.888 17.9151 6.992 19.0151 6.992H57.0421C58.1421 6.993 59.0421 7.888 59.0421 8.982Z" fill="#F0C52E"/>
<path d="M57.0039 18.98C57.0039 20.074 56.1039 20.97 55.0039 20.97H32.0439C30.9439 20.97 30.0439 20.074 30.0439 18.98C30.0439 17.885 30.9439 16.99 32.0439 16.99H55.0029C56.1039 16.99 57.0039 17.886 57.0039 18.98Z" fill="#F0C52E"/>
</g>
<defs>
<clipPath id="clip0">
<rect width="136" height="164" fill="white"/>
</clipPath>
</defs>
</svg>
